<svg width="440" height="45" viewBox="0 0 440 45" fill="none" xmlns="http://www.w3.org/2000/svg">
<path d="M0 29H175.22V30H0V29Z" fill="#2F336D"/>
<path d="M264.77 29H439.99V30H264.77V29Z" fill="#2F336D"/>
<path d="M211.464 33.4314L211.519 44.4113H216.505V28.4456L211.464 33.4314Z" fill="#7FD2E9"/>
<path d="M220.006 25.2009V44.4112H224.937L224.882 29.7469L220.006 25.2009Z" fill="#20B0E5"/>
<path d="M228.236 44.4114H233.424L233.369 15.5227C233.369 15.5227 231.536 17.814 231.023 18.2356C231.023 18.2356 230.454 22.8182 228.346 25.7694L228.236 44.4114Z" fill="#3385C6"/>
<path d="M202.8 34.5639L216.933 24.6472L212.772 20.6328L202.8 34.5639Z" fill="#7ED1E9"/>
<path d="M217.41 24.5004L212.314 29.7062L212.772 23.6572L217.41 24.5004Z" fill="#1AB0E6"/>
<path d="M217.446 24.5556L212.919 19.8264L207.804 25.0322L217.446 24.5556Z" fill="#3183C5"/>
<path d="M221.564 22.5981L224.369 25.4394C224.369 25.4394 226.843 21.0951 227.136 19.207C227.136 19.2254 223.159 21.7916 221.564 22.5981Z" fill="#20B0E5"/>
<path d="M215.717 16.7506L212.674 13.8911C212.674 13.8911 216.175 11.5998 219.218 10.9949L215.717 16.7506Z" fill="#20B0E5"/>
<path d="M221.106 22.323C221.106 22.323 233.497 16.7323 234.652 7.84203L233.405 6.94385C233.405 6.94385 222.554 18.9869 219.676 20.8566L221.106 22.323Z" fill="#134678"/>
<path d="M224.79 8.66709C224.79 8.66709 220.263 12.4431 217.586 18.5655L219.676 20.8751C219.676 20.8751 229.941 14.2212 233.864 7.05402L230.803 4.28613C230.803 4.28613 229.171 4.90937 228.621 6.02752L228.126 12.3332C228.126 12.3148 224.845 11.8382 224.79 8.66709Z" fill="#3584C5"/>
<path d="M228.915 12.663C230.828 12.663 232.379 11.1119 232.379 9.19857C232.379 7.28521 230.828 5.73413 228.915 5.73413C227.001 5.73413 225.45 7.28521 225.45 9.19857C225.45 11.1119 227.001 12.663 228.915 12.663Z" fill="white"/>
<path d="M228.914 11.6366C230.311 11.6366 231.444 10.504 231.444 9.10698C231.444 7.70993 230.311 6.57739 228.914 6.57739C227.517 6.57739 226.385 7.70993 226.385 9.10698C226.385 10.504 227.517 11.6366 228.914 11.6366Z" fill="#1A2150"/>
<path d="M229.006 10.9767C229.988 10.9767 230.784 10.1807 230.784 9.1987C230.784 8.21671 229.988 7.42065 229.006 7.42065C228.024 7.42065 227.228 8.21671 227.228 9.1987C227.228 10.1807 228.024 10.9767 229.006 10.9767Z" fill="#1A2854"/>
<path d="M229.483 10.665C230.232 10.665 230.839 10.0577 230.839 9.30859C230.839 8.55945 230.232 7.95215 229.483 7.95215C228.734 7.95215 228.126 8.55945 228.126 9.30859C228.126 10.0577 228.734 10.665 229.483 10.665Z" fill="#86D4EB"/>
<path d="M231.316 3.93789C231.316 3.93789 235.312 1.40829 237.016 1.46329L235.385 7.82392L231.316 3.93789Z" fill="#20B0E5"/>
<path d="M233.937 7.20058L236.705 1.64648L235.403 8.41039L233.937 7.20058Z" fill="#1888CA"/>
<path d="M237.2 0.986572C237.2 0.986572 229.006 1.29819 220.391 9.40021C220.391 9.40021 215.332 9.30856 211.501 13.0113L225.267 26.8691C225.267 26.8691 228.676 22.8914 228.97 17.7955C228.97 17.7772 236.778 9.47354 237.2 0.986572Z" stroke="white" stroke-miterlimit="10"/>
<path d="M229.153 3.31445C229.153 3.31445 232.9 4.11553 234.55 8.33152C234.531 8.33152 233.79 5.22081 229.153 3.31445Z" stroke="white" stroke-miterlimit="10"/>
<path d="M221.014 8.92358C221.014 8.92358 216.762 13.6895 216.01 17.3556C215.992 17.3556 216.927 13.1762 221.014 8.92358Z" stroke="white" stroke-miterlimit="10"/>
<path d="M229.941 16.6406C229.941 16.6406 223.525 22.2497 220.482 22.1581C220.501 22.1764 223.489 22.3597 229.941 16.6406Z" stroke="white" stroke-miterlimit="10"/>
</svg>
