<svg width="40" height="40" viewBox="0 0 40 40" fill="none" xmlns="http://www.w3.org/2000/svg">
<rect x="0.471436" y="0.254639" width="39" height="39" fill="black"/>
<path d="M12.0361 28.0927L12.0808 37.0137H16.1318V24.0417L12.0361 28.0927Z" fill="#7FD2E9"/>
<path d="M18.9761 21.4055V37.0136H22.9823L22.9377 25.099L18.9761 21.4055Z" fill="#20B0E5"/>
<path d="M25.6631 37.0136H29.8779L29.8332 13.542C29.8332 13.542 28.3439 15.4036 27.9269 15.7462C27.9269 15.7462 27.4652 19.4695 25.7525 21.8673L25.6631 37.0136Z" fill="#3385C6"/>
<path d="M4.99683 29.0127L16.4795 20.9555L13.0987 17.6938L4.99683 29.0127Z" fill="#7ED1E9"/>
<path d="M16.8666 20.8362L12.7263 25.0659L13.0986 20.1511L16.8666 20.8362Z" fill="#1AB0E6"/>
<path d="M16.8963 20.8813L13.2177 17.0388L9.0625 21.2685L16.8963 20.8813Z" fill="#3183C5"/>
<path d="M20.2422 19.2909L22.5208 21.5993C22.5208 21.5993 24.5314 18.0696 24.7697 16.5356C24.7697 16.5505 21.5379 18.6356 20.2422 19.2909Z" fill="#20B0E5"/>
<path d="M15.4913 14.5397L13.019 12.2164C13.019 12.2164 15.8636 10.3548 18.3359 9.86328L15.4913 14.5397Z" fill="#20B0E5"/>
<path d="M19.8699 19.0672C19.8699 19.0672 29.9377 14.5247 30.876 7.30154L29.8632 6.57178C29.8632 6.57178 21.0465 16.3566 18.7083 17.8757L19.8699 19.0672Z" fill="#134678"/>
<path d="M22.8635 7.97207C22.8635 7.97207 19.1849 11.0401 17.0105 16.0144L18.7083 17.8909C18.7083 17.8909 27.0485 12.4847 30.2356 6.66147L27.7485 4.4126C27.7485 4.4126 26.423 4.91897 25.9762 5.82745L25.5741 10.9507C25.5741 10.9358 22.9082 10.5486 22.8635 7.97207Z" fill="#3584C5"/>
<path d="M26.2142 11.2185C27.7688 11.2185 29.029 9.95825 29.029 8.40368C29.029 6.8491 27.7688 5.58887 26.2142 5.58887C24.6596 5.58887 23.3994 6.8491 23.3994 8.40368C23.3994 9.95825 24.6596 11.2185 26.2142 11.2185Z" fill="white"/>
<path d="M26.2142 10.3844C27.3493 10.3844 28.2695 9.46427 28.2695 8.32918C28.2695 7.19409 27.3493 6.27393 26.2142 6.27393C25.0791 6.27393 24.1589 7.19409 24.1589 8.32918C24.1589 9.46427 25.0791 10.3844 26.2142 10.3844Z" fill="#1A2150"/>
<path d="M26.2889 9.84851C27.0867 9.84851 27.7335 9.20172 27.7335 8.40386C27.7335 7.60601 27.0867 6.95923 26.2889 6.95923C25.491 6.95923 24.8442 7.60601 24.8442 8.40386C24.8442 9.20172 25.491 9.84851 26.2889 9.84851Z" fill="#1A2854"/>
<path d="M26.6761 9.5953C27.2847 9.5953 27.7782 9.10188 27.7782 8.49321C27.7782 7.88454 27.2847 7.39111 26.6761 7.39111C26.0674 7.39111 25.574 7.88454 25.574 8.49321C25.574 9.10188 26.0674 9.5953 26.6761 9.5953Z" fill="#86D4EB"/>
<path d="M28.1653 4.12946C28.1653 4.12946 31.412 2.0742 32.7971 2.11888L31.4716 7.28681L28.1653 4.12946Z" fill="#20B0E5"/>
<path d="M30.2949 6.78045L32.5438 2.26782L31.4864 7.76341L30.2949 6.78045Z" fill="#1888CA"/>
<path d="M32.9462 1.73169C32.9462 1.73169 26.2889 1.98487 19.2891 8.56766C19.2891 8.56766 15.1786 8.4932 12.0659 11.5016L23.2507 22.7609C23.2507 22.7609 26.0208 19.529 26.2591 15.3887C26.2591 15.3738 32.6036 8.62723 32.9462 1.73169Z" stroke="white" stroke-miterlimit="10"/>
<path d="M26.408 3.62305C26.408 3.62305 29.4525 4.27391 30.7929 7.69934C30.778 7.69934 30.1759 5.17194 26.408 3.62305Z" stroke="white" stroke-miterlimit="10"/>
<path d="M19.7955 8.18018C19.7955 8.18018 16.3403 12.0524 15.7297 15.031C15.7148 15.031 16.4744 11.6354 19.7955 8.18018Z" stroke="white" stroke-miterlimit="10"/>
<path d="M27.0482 14.4502C27.0482 14.4502 21.8355 19.0075 19.3633 18.933C19.3782 18.9479 21.8058 19.0969 27.0482 14.4502Z" stroke="white" stroke-miterlimit="10"/>
</svg>
