<svg width="474" height="73" viewBox="0 0 474 73" fill="none" xmlns="http://www.w3.org/2000/svg">
<path d="M55.1701 48.823H66.4501V53.239H49.6981V19.879H55.1701V48.823ZM74.0023 39.895C74.0023 37.239 74.5463 34.887 75.6343 32.839C76.7543 30.791 78.2583 29.207 80.1463 28.087C82.0663 26.935 84.1783 26.359 86.4823 26.359C88.5623 26.359 90.3703 26.775 91.9063 27.607C93.4743 28.407 94.7223 29.415 95.6503 30.631V26.791H101.17V53.239H95.6503V49.303C94.7223 50.551 93.4583 51.591 91.8583 52.423C90.2583 53.255 88.4343 53.671 86.3863 53.671C84.1143 53.671 82.0343 53.095 80.1463 51.943C78.2583 50.759 76.7543 49.127 75.6343 47.047C74.5463 44.935 74.0023 42.551 74.0023 39.895ZM95.6503 39.991C95.6503 38.167 95.2663 36.583 94.4983 35.239C93.7623 33.895 92.7863 32.871 91.5703 32.167C90.3543 31.463 89.0423 31.111 87.6343 31.111C86.2263 31.111 84.9143 31.463 83.6983 32.167C82.4823 32.839 81.4903 33.847 80.7223 35.191C79.9863 36.503 79.6183 38.071 79.6183 39.895C79.6183 41.719 79.9863 43.319 80.7223 44.695C81.4903 46.071 82.4823 47.127 83.6983 47.863C84.9463 48.567 86.2583 48.919 87.6343 48.919C89.0423 48.919 90.3543 48.567 91.5703 47.863C92.7863 47.159 93.7623 46.135 94.4983 44.791C95.2663 43.415 95.6503 41.815 95.6503 39.991ZM137.11 26.791V53.239H131.638V50.119C130.774 51.207 129.638 52.071 128.23 52.711C126.854 53.319 125.382 53.623 123.814 53.623C121.734 53.623 119.862 53.191 118.198 52.327C116.566 51.463 115.27 50.183 114.31 48.487C113.382 46.791 112.918 44.743 112.918 42.343V26.791H118.342V41.527C118.342 43.895 118.934 45.719 120.118 46.999C121.302 48.247 122.918 48.871 124.966 48.871C127.014 48.871 128.63 48.247 129.814 46.999C131.03 45.719 131.638 43.895 131.638 41.527V26.791H137.11ZM162.473 26.359C164.553 26.359 166.409 26.791 168.041 27.655C169.705 28.519 171.001 29.799 171.929 31.495C172.857 33.191 173.321 35.239 173.321 37.639V53.239H167.897V38.455C167.897 36.087 167.305 34.279 166.121 33.031C164.937 31.751 163.321 31.111 161.273 31.111C159.225 31.111 157.593 31.751 156.377 33.031C155.193 34.279 154.601 36.087 154.601 38.455V53.239H149.129V26.791H154.601V29.815C155.497 28.727 156.633 27.879 158.009 27.271C159.417 26.663 160.905 26.359 162.473 26.359ZM183.277 39.991C183.277 37.271 183.821 34.887 184.909 32.839C186.029 30.759 187.565 29.159 189.517 28.039C191.469 26.919 193.709 26.359 196.237 26.359C199.437 26.359 202.077 27.127 204.157 28.663C206.269 30.167 207.693 32.327 208.429 35.143H202.525C202.045 33.831 201.277 32.807 200.221 32.071C199.165 31.335 197.837 30.967 196.237 30.967C193.997 30.967 192.205 31.767 190.861 33.367C189.549 34.935 188.893 37.143 188.893 39.991C188.893 42.839 189.549 45.063 190.861 46.663C192.205 48.263 193.997 49.063 196.237 49.063C199.405 49.063 201.501 47.671 202.525 44.887H208.429C207.661 47.575 206.221 49.719 204.109 51.319C201.997 52.887 199.373 53.671 196.237 53.671C193.709 53.671 191.469 53.111 189.517 51.991C187.565 50.839 186.029 49.239 184.909 47.191C183.821 45.111 183.277 42.711 183.277 39.991ZM232.363 26.359C234.379 26.359 236.171 26.791 237.739 27.655C239.339 28.519 240.587 29.799 241.483 31.495C242.411 33.191 242.875 35.239 242.875 37.639V53.239H237.451V38.455C237.451 36.087 236.859 34.279 235.675 33.031C234.491 31.751 232.875 31.111 230.827 31.111C228.779 31.111 227.147 31.751 225.931 33.031C224.747 34.279 224.155 36.087 224.155 38.455V53.239H218.683V17.719H224.155V29.863C225.083 28.743 226.251 27.879 227.659 27.271C229.099 26.663 230.667 26.359 232.363 26.359ZM411.831 53.575C410.839 53.575 410.007 53.239 409.335 52.567C408.663 51.895 408.327 51.063 408.327 50.071C408.327 49.079 408.663 48.247 409.335 47.575C410.007 46.903 410.839 46.567 411.831 46.567C412.791 46.567 413.607 46.903 414.279 47.575C414.951 48.247 415.287 49.079 415.287 50.071C415.287 51.063 414.951 51.895 414.279 52.567C413.607 53.239 412.791 53.575 411.831 53.575Z" fill="white"/>
<path d="M261.038 31.255V45.895C261.038 46.887 261.262 47.607 261.71 48.055C262.19 48.471 262.99 48.679 264.11 48.679H267.47V53.239H263.15C260.686 53.239 258.798 52.663 257.486 51.511C256.174 50.359 255.518 48.487 255.518 45.895V31.255H252.398V26.791H255.518V20.215H261.038V26.791H267.47V31.255H261.038ZM282.786 30.631C283.586 29.287 284.642 28.247 285.954 27.511C287.298 26.743 288.882 26.359 290.706 26.359V32.023H289.314C287.17 32.023 285.538 32.567 284.418 33.655C283.33 34.743 282.786 36.631 282.786 39.319V53.239H277.314V26.791H282.786V30.631ZM298.712 39.895C298.712 37.239 299.256 34.887 300.344 32.839C301.464 30.791 302.968 29.207 304.856 28.087C306.776 26.935 308.888 26.359 311.192 26.359C313.272 26.359 315.08 26.775 316.616 27.607C318.184 28.407 319.432 29.415 320.36 30.631V26.791H325.88V53.239H320.36V49.303C319.432 50.551 318.168 51.591 316.568 52.423C314.968 53.255 313.144 53.671 311.096 53.671C308.824 53.671 306.744 53.095 304.856 51.943C302.968 50.759 301.464 49.127 300.344 47.047C299.256 44.935 298.712 42.551 298.712 39.895ZM320.36 39.991C320.36 38.167 319.976 36.583 319.208 35.239C318.472 33.895 317.496 32.871 316.28 32.167C315.064 31.463 313.752 31.111 312.344 31.111C310.936 31.111 309.624 31.463 308.408 32.167C307.192 32.839 306.2 33.847 305.432 35.191C304.696 36.503 304.328 38.071 304.328 39.895C304.328 41.719 304.696 43.319 305.432 44.695C306.2 46.071 307.192 47.127 308.408 47.863C309.656 48.567 310.968 48.919 312.344 48.919C313.752 48.919 315.064 48.567 316.28 47.863C317.496 47.159 318.472 46.135 319.208 44.791C319.976 43.415 320.36 41.815 320.36 39.991ZM336.043 39.895C336.043 37.239 336.587 34.887 337.675 32.839C338.795 30.791 340.299 29.207 342.187 28.087C344.107 26.935 346.235 26.359 348.571 26.359C350.299 26.359 351.995 26.743 353.659 27.511C355.355 28.247 356.699 29.239 357.691 30.487V17.719H363.211V53.239H357.691V49.255C356.795 50.535 355.547 51.591 353.947 52.423C352.379 53.255 350.571 53.671 348.523 53.671C346.219 53.671 344.107 53.095 342.187 51.943C340.299 50.759 338.795 49.127 337.675 47.047C336.587 44.935 336.043 42.551 336.043 39.895ZM357.691 39.991C357.691 38.167 357.307 36.583 356.539 35.239C355.803 33.895 354.827 32.871 353.611 32.167C352.395 31.463 351.083 31.111 349.675 31.111C348.267 31.111 346.955 31.463 345.739 32.167C344.523 32.839 343.531 33.847 342.763 35.191C342.027 36.503 341.659 38.071 341.659 39.895C341.659 41.719 342.027 43.319 342.763 44.695C343.531 46.071 344.523 47.127 345.739 47.863C346.987 48.567 348.299 48.919 349.675 48.919C351.083 48.919 352.395 48.567 353.611 47.863C354.827 47.159 355.803 46.135 356.539 44.791C357.307 43.415 357.691 41.815 357.691 39.991ZM399.438 39.367C399.438 40.359 399.374 41.255 399.246 42.055H379.038C379.198 44.167 379.982 45.863 381.39 47.143C382.798 48.423 384.526 49.063 386.574 49.063C389.518 49.063 391.598 47.831 392.814 45.367H398.718C397.918 47.799 396.462 49.799 394.35 51.367C392.27 52.903 389.678 53.671 386.574 53.671C384.046 53.671 381.774 53.111 379.758 51.991C377.774 50.839 376.206 49.239 375.054 47.191C373.934 45.111 373.374 42.711 373.374 39.991C373.374 37.271 373.918 34.887 375.006 32.839C376.126 30.759 377.678 29.159 379.662 28.039C381.678 26.919 383.982 26.359 386.574 26.359C389.07 26.359 391.294 26.903 393.246 27.991C395.198 29.079 396.718 30.615 397.806 32.599C398.894 34.551 399.438 36.807 399.438 39.367ZM393.726 37.639C393.694 35.623 392.974 34.007 391.566 32.791C390.158 31.575 388.414 30.967 386.334 30.967C384.446 30.967 382.83 31.575 381.486 32.791C380.142 33.975 379.342 35.591 379.086 37.639H393.726ZM424.177 39.895C424.177 37.239 424.721 34.887 425.809 32.839C426.929 30.791 428.433 29.207 430.321 28.087C432.241 26.935 434.353 26.359 436.657 26.359C438.737 26.359 440.545 26.775 442.081 27.607C443.649 28.407 444.897 29.415 445.825 30.631V26.791H451.345V53.239H445.825V49.303C444.897 50.551 443.633 51.591 442.033 52.423C440.433 53.255 438.609 53.671 436.561 53.671C434.289 53.671 432.209 53.095 430.321 51.943C428.433 50.759 426.929 49.127 425.809 47.047C424.721 44.935 424.177 42.551 424.177 39.895ZM445.825 39.991C445.825 38.167 445.441 36.583 444.673 35.239C443.937 33.895 442.961 32.871 441.745 32.167C440.529 31.463 439.217 31.111 437.809 31.111C436.401 31.111 435.089 31.463 433.873 32.167C432.657 32.839 431.665 33.847 430.897 35.191C430.161 36.503 429.793 38.071 429.793 39.895C429.793 41.719 430.161 43.319 430.897 44.695C431.665 46.071 432.657 47.127 433.873 47.863C435.121 48.567 436.433 48.919 437.809 48.919C439.217 48.919 440.529 48.567 441.745 47.863C442.961 47.159 443.937 46.135 444.673 44.791C445.441 43.415 445.825 41.815 445.825 39.991ZM466.117 23.287C465.125 23.287 464.293 22.951 463.621 22.279C462.949 21.607 462.613 20.775 462.613 19.783C462.613 18.791 462.949 17.959 463.621 17.287C464.293 16.615 465.125 16.279 466.117 16.279C467.077 16.279 467.893 16.615 468.565 17.287C469.237 17.959 469.573 18.791 469.573 19.783C469.573 20.775 469.237 21.607 468.565 22.279C467.893 22.951 467.077 23.287 466.117 23.287ZM468.805 26.791V53.239H463.333V26.791H468.805Z" fill="#20B0E5"/>
<path d="M8.82886 46.9715L8.88386 57.9514H13.8697V41.9856L8.82886 46.9715Z" fill="#7FD2E9"/>
<path d="M17.3706 38.741V57.9512H22.3015L22.2465 43.2869L17.3706 38.741Z" fill="#20B0E5"/>
<path d="M25.6011 57.9513H30.7886L30.7336 29.0626C30.7336 29.0626 28.9005 31.3539 28.3873 31.7755C28.3873 31.7755 27.8191 36.3581 25.7111 39.3093L25.6011 57.9513Z" fill="#3385C6"/>
<path d="M0.165039 48.1039L14.2978 38.1872L10.1368 34.1729L0.165039 48.1039Z" fill="#7ED1E9"/>
<path d="M14.7743 38.0405L9.67847 43.2463L10.1367 37.1973L14.7743 38.0405Z" fill="#1AB0E6"/>
<path d="M14.811 38.0956L10.2834 33.3663L5.16919 38.5722L14.811 38.0956Z" fill="#3183C5"/>
<path d="M18.9287 36.1382L21.7333 38.9794C21.7333 38.9794 24.2079 34.6351 24.5011 32.7471C24.5011 32.7654 20.5235 35.3317 18.9287 36.1382Z" fill="#20B0E5"/>
<path d="M13.0814 30.2908L10.0386 27.4312C10.0386 27.4312 13.5397 25.1399 16.5825 24.535L13.0814 30.2908Z" fill="#20B0E5"/>
<path d="M18.4705 35.8632C18.4705 35.8632 30.8619 30.2724 32.0167 21.3822L30.7702 20.484C30.7702 20.484 19.9186 32.5271 17.0408 34.3968L18.4705 35.8632Z" fill="#134678"/>
<path d="M22.155 22.207C22.155 22.207 17.6274 25.9831 14.9512 32.1054L17.0408 34.415C17.0408 34.415 27.3058 27.7611 31.2285 20.5939L28.1674 17.826C28.1674 17.826 26.536 18.4493 25.9861 19.5674L25.4911 25.8731C25.4911 25.8548 22.21 25.3782 22.155 22.207Z" fill="#3584C5"/>
<path d="M26.2794 26.203C28.1927 26.203 29.7438 24.652 29.7438 22.7386C29.7438 20.8253 28.1927 19.2742 26.2794 19.2742C24.366 19.2742 22.8149 20.8253 22.8149 22.7386C22.8149 24.652 24.366 26.203 26.2794 26.203Z" fill="white"/>
<path d="M26.2791 25.1766C27.6762 25.1766 28.8087 24.0441 28.8087 22.647C28.8087 21.25 27.6762 20.1174 26.2791 20.1174C24.882 20.1174 23.7495 21.25 23.7495 22.647C23.7495 24.0441 24.882 25.1766 26.2791 25.1766Z" fill="#1A2150"/>
<path d="M26.3708 24.5167C27.3528 24.5167 28.1489 23.7206 28.1489 22.7386C28.1489 21.7566 27.3528 20.9606 26.3708 20.9606C25.3888 20.9606 24.5928 21.7566 24.5928 22.7386C24.5928 23.7206 25.3888 24.5167 26.3708 24.5167Z" fill="#1A2854"/>
<path d="M26.8477 24.2051C27.5968 24.2051 28.2041 23.5978 28.2041 22.8486C28.2041 22.0995 27.5968 21.4922 26.8477 21.4922C26.0985 21.4922 25.4912 22.0995 25.4912 22.8486C25.4912 23.5978 26.0985 24.2051 26.8477 24.2051Z" fill="#86D4EB"/>
<path d="M28.6804 17.4779C28.6804 17.4779 32.6764 14.9483 34.3812 15.0033L32.7498 21.364L28.6804 17.4779Z" fill="#20B0E5"/>
<path d="M31.3018 20.7406L34.0696 15.1865L32.7682 21.9504L31.3018 20.7406Z" fill="#1888CA"/>
<path d="M34.5647 14.5267C34.5647 14.5267 26.371 14.8383 17.7557 22.9404C17.7557 22.9404 12.6965 22.8487 8.86548 26.5515L22.6316 40.4092C22.6316 40.4092 26.041 36.4315 26.3343 31.3357C26.3343 31.3174 34.1431 23.0137 34.5647 14.5267Z" stroke="white" stroke-miterlimit="10"/>
<path d="M26.5176 16.8546C26.5176 16.8546 30.2648 17.6557 31.9145 21.8717C31.8962 21.8717 31.1552 18.761 26.5176 16.8546Z" stroke="white" stroke-miterlimit="10"/>
<path d="M18.379 22.4637C18.379 22.4637 14.1263 27.2296 13.3748 30.8957C13.3564 30.8957 14.2913 26.7164 18.379 22.4637Z" stroke="white" stroke-miterlimit="10"/>
<path d="M27.3056 30.1808C27.3056 30.1808 20.89 35.7899 17.8472 35.6982C17.8655 35.7166 20.8534 35.8999 27.3056 30.1808Z" stroke="white" stroke-miterlimit="10"/>
</svg>
