<svg width="411" height="73" viewBox="0 0 411 73" fill="none" xmlns="http://www.w3.org/2000/svg">
<path d="M55.9597 49.3045H67.2397V53.7205H50.4877V20.3605H55.9597V49.3045ZM69.9918 40.3765C69.9918 37.7205 70.5358 35.3685 71.6238 33.3205C72.7438 31.2725 74.2478 29.6885 76.1358 28.5685C78.0558 27.4165 80.1678 26.8405 82.4718 26.8405C84.5518 26.8405 86.3598 27.2565 87.8958 28.0885C89.4638 28.8885 90.7118 29.8965 91.6398 31.1125V27.2725H97.1598V53.7205H91.6398V49.7845C90.7118 51.0325 89.4478 52.0725 87.8478 52.9045C86.2478 53.7365 84.4238 54.1525 82.3758 54.1525C80.1038 54.1525 78.0238 53.5765 76.1358 52.4245C74.2478 51.2405 72.7438 49.6085 71.6238 47.5285C70.5358 45.4165 69.9918 43.0325 69.9918 40.3765ZM91.6398 40.4725C91.6398 38.6485 91.2558 37.0645 90.4878 35.7205C89.7518 34.3765 88.7758 33.3525 87.5598 32.6485C86.3438 31.9445 85.0318 31.5925 83.6238 31.5925C82.2158 31.5925 80.9038 31.9445 79.6878 32.6485C78.4718 33.3205 77.4798 34.3285 76.7118 35.6725C75.9758 36.9845 75.6078 38.5525 75.6078 40.3765C75.6078 42.2005 75.9758 43.8005 76.7118 45.1765C77.4798 46.5525 78.4718 47.6085 79.6878 48.3445C80.9358 49.0485 82.2478 49.4005 83.6238 49.4005C85.0318 49.4005 86.3438 49.0485 87.5598 48.3445C88.7758 47.6405 89.7518 46.6165 90.4878 45.2725C91.2558 43.8965 91.6398 42.2965 91.6398 40.4725ZM128.299 27.2725V53.7205H122.827V50.6005C121.963 51.6885 120.827 52.5525 119.419 53.1925C118.043 53.8005 116.571 54.1045 115.003 54.1045C112.923 54.1045 111.051 53.6725 109.387 52.8085C107.755 51.9445 106.459 50.6645 105.499 48.9685C104.571 47.2725 104.107 45.2245 104.107 42.8245V27.2725H109.531V42.0085C109.531 44.3765 110.123 46.2005 111.307 47.4805C112.491 48.7285 114.107 49.3525 116.155 49.3525C118.203 49.3525 119.819 48.7285 121.003 47.4805C122.219 46.2005 122.827 44.3765 122.827 42.0085V27.2725H128.299ZM148.863 26.8405C150.943 26.8405 152.799 27.2725 154.431 28.1365C156.095 29.0005 157.391 30.2805 158.319 31.9765C159.247 33.6725 159.711 35.7205 159.711 38.1205V53.7205H154.287V38.9365C154.287 36.5685 153.695 34.7605 152.511 33.5125C151.327 32.2325 149.711 31.5925 147.663 31.5925C145.615 31.5925 143.983 32.2325 142.767 33.5125C141.583 34.7605 140.991 36.5685 140.991 38.9365V53.7205H135.519V27.2725H140.991V30.2965C141.887 29.2085 143.023 28.3605 144.399 27.7525C145.807 27.1445 147.295 26.8405 148.863 26.8405ZM164.867 40.4725C164.867 37.7525 165.411 35.3685 166.499 33.3205C167.619 31.2405 169.155 29.6405 171.107 28.5205C173.059 27.4005 175.299 26.8405 177.827 26.8405C181.027 26.8405 183.667 27.6085 185.747 29.1445C187.859 30.6485 189.283 32.8085 190.019 35.6245H184.115C183.635 34.3125 182.867 33.2885 181.811 32.5525C180.755 31.8165 179.427 31.4485 177.827 31.4485C175.587 31.4485 173.795 32.2485 172.451 33.8485C171.139 35.4165 170.483 37.6245 170.483 40.4725C170.483 43.3205 171.139 45.5445 172.451 47.1445C173.795 48.7445 175.587 49.5445 177.827 49.5445C180.995 49.5445 183.091 48.1525 184.115 45.3685H190.019C189.251 48.0565 187.811 50.2005 185.699 51.8005C183.587 53.3685 180.963 54.1525 177.827 54.1525C175.299 54.1525 173.059 53.5925 171.107 52.4725C169.155 51.3205 167.619 49.7205 166.499 47.6725C165.411 45.5925 164.867 43.1925 164.867 40.4725ZM209.152 26.8405C211.168 26.8405 212.96 27.2725 214.528 28.1365C216.128 29.0005 217.376 30.2805 218.272 31.9765C219.2 33.6725 219.664 35.7205 219.664 38.1205V53.7205H214.24V38.9365C214.24 36.5685 213.648 34.7605 212.464 33.5125C211.28 32.2325 209.664 31.5925 207.616 31.5925C205.568 31.5925 203.936 32.2325 202.72 33.5125C201.536 34.7605 200.944 36.5685 200.944 38.9365V53.7205H195.472V18.2005H200.944V30.3445C201.872 29.2245 203.04 28.3605 204.448 27.7525C205.888 27.1445 207.456 26.8405 209.152 26.8405ZM233.028 31.7365V46.3765C233.028 47.3685 233.252 48.0885 233.7 48.5365C234.18 48.9525 234.98 49.1605 236.1 49.1605H239.46V53.7205H235.14C232.676 53.7205 230.788 53.1445 229.476 51.9925C228.164 50.8405 227.508 48.9685 227.508 46.3765V31.7365H224.388V27.2725H227.508V20.6965H233.028V27.2725H239.46V31.7365H233.028ZM249.975 31.1125C250.775 29.7685 251.831 28.7285 253.143 27.9925C254.487 27.2245 256.071 26.8405 257.895 26.8405V32.5045H256.503C254.359 32.5045 252.727 33.0485 251.607 34.1365C250.519 35.2245 249.975 37.1125 249.975 39.8005V53.7205H244.503V27.2725H249.975V31.1125ZM261.101 40.3765C261.101 37.7205 261.645 35.3685 262.733 33.3205C263.853 31.2725 265.357 29.6885 267.245 28.5685C269.165 27.4165 271.277 26.8405 273.581 26.8405C275.661 26.8405 277.469 27.2565 279.005 28.0885C280.573 28.8885 281.821 29.8965 282.749 31.1125V27.2725H288.269V53.7205H282.749V49.7845C281.821 51.0325 280.557 52.0725 278.957 52.9045C277.357 53.7365 275.533 54.1525 273.485 54.1525C271.213 54.1525 269.133 53.5765 267.245 52.4245C265.357 51.2405 263.853 49.6085 262.733 47.5285C261.645 45.4165 261.101 43.0325 261.101 40.3765ZM282.749 40.4725C282.749 38.6485 282.365 37.0645 281.597 35.7205C280.861 34.3765 279.885 33.3525 278.669 32.6485C277.453 31.9445 276.141 31.5925 274.733 31.5925C273.325 31.5925 272.013 31.9445 270.797 32.6485C269.581 33.3205 268.589 34.3285 267.821 35.6725C267.085 36.9845 266.717 38.5525 266.717 40.3765C266.717 42.2005 267.085 43.8005 267.821 45.1765C268.589 46.5525 269.581 47.6085 270.797 48.3445C272.045 49.0485 273.357 49.4005 274.733 49.4005C276.141 49.4005 277.453 49.0485 278.669 48.3445C279.885 47.6405 280.861 46.6165 281.597 45.2725C282.365 43.8965 282.749 42.2965 282.749 40.4725ZM293.632 40.3765C293.632 37.7205 294.176 35.3685 295.264 33.3205C296.384 31.2725 297.888 29.6885 299.776 28.5685C301.696 27.4165 303.824 26.8405 306.16 26.8405C307.888 26.8405 309.584 27.2245 311.248 27.9925C312.944 28.7285 314.288 29.7205 315.28 30.9685V18.2005H320.8V53.7205H315.28V49.7365C314.384 51.0165 313.136 52.0725 311.536 52.9045C309.968 53.7365 308.16 54.1525 306.112 54.1525C303.808 54.1525 301.696 53.5765 299.776 52.4245C297.888 51.2405 296.384 49.6085 295.264 47.5285C294.176 45.4165 293.632 43.0325 293.632 40.3765ZM315.28 40.4725C315.28 38.6485 314.896 37.0645 314.128 35.7205C313.392 34.3765 312.416 33.3525 311.2 32.6485C309.984 31.9445 308.672 31.5925 307.264 31.5925C305.856 31.5925 304.544 31.9445 303.328 32.6485C302.112 33.3205 301.12 34.3285 300.352 35.6725C299.616 36.9845 299.248 38.5525 299.248 40.3765C299.248 42.2005 299.616 43.8005 300.352 45.1765C301.12 46.5525 302.112 47.6085 303.328 48.3445C304.576 49.0485 305.888 49.4005 307.264 49.4005C308.672 49.4005 309.984 49.0485 311.2 48.3445C312.416 47.6405 313.392 46.6165 314.128 45.2725C314.896 43.8965 315.28 42.2965 315.28 40.4725ZM352.228 39.8485C352.228 40.8405 352.164 41.7365 352.036 42.5365H331.828C331.988 44.6485 332.772 46.3445 334.18 47.6245C335.588 48.9045 337.316 49.5445 339.364 49.5445C342.308 49.5445 344.388 48.3125 345.604 45.8485H351.508C350.708 48.2805 349.252 50.2805 347.14 51.8485C345.06 53.3845 342.468 54.1525 339.364 54.1525C336.836 54.1525 334.564 53.5925 332.548 52.4725C330.564 51.3205 328.996 49.7205 327.844 47.6725C326.724 45.5925 326.164 43.1925 326.164 40.4725C326.164 37.7525 326.708 35.3685 327.796 33.3205C328.916 31.2405 330.468 29.6405 332.452 28.5205C334.468 27.4005 336.772 26.8405 339.364 26.8405C341.86 26.8405 344.084 27.3845 346.036 28.4725C347.988 29.5605 349.508 31.0965 350.596 33.0805C351.684 35.0325 352.228 37.2885 352.228 39.8485ZM346.516 38.1205C346.484 36.1045 345.764 34.4885 344.356 33.2725C342.948 32.0565 341.204 31.4485 339.124 31.4485C337.236 31.4485 335.62 32.0565 334.276 33.2725C332.932 34.4565 332.132 36.0725 331.876 38.1205H346.516ZM359.821 54.0565C358.829 54.0565 357.997 53.7205 357.325 53.0485C356.653 52.3765 356.317 51.5445 356.317 50.5525C356.317 49.5605 356.653 48.7285 357.325 48.0565C357.997 47.3845 358.829 47.0485 359.821 47.0485C360.781 47.0485 361.597 47.3845 362.269 48.0565C362.941 48.7285 363.277 49.5605 363.277 50.5525C363.277 51.5445 362.941 52.3765 362.269 53.0485C361.597 53.7205 360.781 54.0565 359.821 54.0565ZM367.367 40.3765C367.367 37.7205 367.911 35.3685 368.999 33.3205C370.119 31.2725 371.623 29.6885 373.511 28.5685C375.431 27.4165 377.543 26.8405 379.847 26.8405C381.927 26.8405 383.735 27.2565 385.271 28.0885C386.839 28.8885 388.087 29.8965 389.015 31.1125V27.2725H394.535V53.7205H389.015V49.7845C388.087 51.0325 386.823 52.0725 385.223 52.9045C383.623 53.7365 381.799 54.1525 379.751 54.1525C377.479 54.1525 375.399 53.5765 373.511 52.4245C371.623 51.2405 370.119 49.6085 368.999 47.5285C367.911 45.4165 367.367 43.0325 367.367 40.3765ZM389.015 40.4725C389.015 38.6485 388.631 37.0645 387.863 35.7205C387.127 34.3765 386.151 33.3525 384.935 32.6485C383.719 31.9445 382.407 31.5925 380.999 31.5925C379.591 31.5925 378.279 31.9445 377.063 32.6485C375.847 33.3205 374.855 34.3285 374.087 35.6725C373.351 36.9845 372.983 38.5525 372.983 40.3765C372.983 42.2005 373.351 43.8005 374.087 45.1765C374.855 46.5525 375.847 47.6085 377.063 48.3445C378.311 49.0485 379.623 49.4005 380.999 49.4005C382.407 49.4005 383.719 49.0485 384.935 48.3445C386.151 47.6405 387.127 46.6165 387.863 45.2725C388.631 43.8965 389.015 42.2965 389.015 40.4725ZM404.506 23.7685C403.514 23.7685 402.682 23.4325 402.01 22.7605C401.338 22.0885 401.002 21.2565 401.002 20.2645C401.002 19.2725 401.338 18.4405 402.01 17.7685C402.682 17.0965 403.514 16.7605 404.506 16.7605C405.466 16.7605 406.282 17.0965 406.954 17.7685C407.626 18.4405 407.962 19.2725 407.962 20.2645C407.962 21.2565 407.626 22.0885 406.954 22.7605C406.282 23.4325 405.466 23.7685 404.506 23.7685ZM407.194 27.2725V53.7205H401.722V27.2725H407.194Z" fill="url(#paint0_linear_35_4)"/>
<path d="M9.61841 44.4529L9.67341 55.4328H14.6593V39.467L9.61841 44.4529Z" fill="#7FD2E9"/>
<path d="M18.1602 36.2224V55.4326H23.091L23.036 40.7683L18.1602 36.2224Z" fill="#20B0E5"/>
<path d="M26.3906 55.4327H31.5781L31.5231 26.5441C31.5231 26.5441 29.6901 28.8354 29.1768 29.257C29.1768 29.257 28.6086 33.8396 26.5006 36.7907L26.3906 55.4327Z" fill="#3385C6"/>
<path d="M0.95459 45.5854L15.0873 35.6686L10.9263 31.6543L0.95459 45.5854Z" fill="#7ED1E9"/>
<path d="M15.5639 35.5219L10.468 40.7277L10.9263 34.6787L15.5639 35.5219Z" fill="#1AB0E6"/>
<path d="M15.6005 35.577L11.0729 30.8478L5.95874 36.0536L15.6005 35.577Z" fill="#3183C5"/>
<path d="M19.7183 33.6196L22.5228 36.4608C22.5228 36.4608 24.9974 32.1165 25.2907 30.2285C25.2907 30.2468 21.313 32.8131 19.7183 33.6196Z" fill="#20B0E5"/>
<path d="M13.871 27.7722L10.8281 24.9127C10.8281 24.9127 14.3292 22.6214 17.3721 22.0165L13.871 27.7722Z" fill="#20B0E5"/>
<path d="M19.2601 33.3446C19.2601 33.3446 31.6514 27.7539 32.8062 18.8636L31.5598 17.9655C31.5598 17.9655 20.7082 30.0085 17.8303 31.8782L19.2601 33.3446Z" fill="#134678"/>
<path d="M22.9446 19.6885C22.9446 19.6885 18.417 23.4645 15.7407 29.5869L17.8304 31.8965C17.8304 31.8965 28.0954 25.2426 32.0181 18.0754L28.9569 15.3075C28.9569 15.3075 27.3255 15.9307 26.7756 17.0489L26.2807 23.3545C26.2807 23.3362 22.9995 22.8596 22.9446 19.6885Z" fill="#3584C5"/>
<path d="M27.0689 23.6845C28.9823 23.6845 30.5334 22.1334 30.5334 20.2201C30.5334 18.3067 28.9823 16.7556 27.0689 16.7556C25.1556 16.7556 23.6045 18.3067 23.6045 20.2201C23.6045 22.1334 25.1556 23.6845 27.0689 23.6845Z" fill="white"/>
<path d="M27.0687 22.6581C28.4657 22.6581 29.5982 21.5255 29.5982 20.1285C29.5982 18.7314 28.4657 17.5989 27.0687 17.5989C25.6716 17.5989 24.5391 18.7314 24.5391 20.1285C24.5391 21.5255 25.6716 22.6581 27.0687 22.6581Z" fill="#1A2150"/>
<path d="M27.1604 21.9981C28.1424 21.9981 28.9384 21.202 28.9384 20.2201C28.9384 19.2381 28.1424 18.442 27.1604 18.442C26.1784 18.442 25.3823 19.2381 25.3823 20.2201C25.3823 21.202 26.1784 21.9981 27.1604 21.9981Z" fill="#1A2854"/>
<path d="M27.6372 21.6865C28.3864 21.6865 28.9937 21.0792 28.9937 20.3301C28.9937 19.5809 28.3864 18.9736 27.6372 18.9736C26.8881 18.9736 26.2808 19.5809 26.2808 20.3301C26.2808 21.0792 26.8881 21.6865 27.6372 21.6865Z" fill="#86D4EB"/>
<path d="M29.47 14.9594C29.47 14.9594 33.466 12.4298 35.1707 12.4848L33.5393 18.8454L29.47 14.9594Z" fill="#20B0E5"/>
<path d="M32.0913 18.2221L34.8592 12.668L33.5577 19.4319L32.0913 18.2221Z" fill="#1888CA"/>
<path d="M35.3542 12.0082C35.3542 12.0082 27.1605 12.3198 18.5453 20.4218C18.5453 20.4218 13.4861 20.3302 9.65503 24.0329L23.4211 37.8907C23.4211 37.8907 26.8306 33.913 27.1239 28.8171C27.1239 28.7988 34.9326 20.4951 35.3542 12.0082Z" stroke="white" stroke-miterlimit="10"/>
<path d="M27.3071 14.3361C27.3071 14.3361 31.0543 15.1371 32.7041 19.3531C32.6857 19.3531 31.9447 16.2424 27.3071 14.3361Z" stroke="white" stroke-miterlimit="10"/>
<path d="M19.1685 19.9452C19.1685 19.9452 14.9159 24.7111 14.1643 28.3772C14.146 28.3772 15.0808 24.1978 19.1685 19.9452Z" stroke="white" stroke-miterlimit="10"/>
<path d="M28.0952 27.6622C28.0952 27.6622 21.6796 33.2713 18.6367 33.1797C18.655 33.198 21.6429 33.3813 28.0952 27.6622Z" stroke="white" stroke-miterlimit="10"/>
<defs>
<linearGradient id="paint0_linear_35_4" x1="46.8877" y1="36.7205" x2="410.888" y2="36.7205" gradientUnits="userSpaceOnUse">
<stop stop-color="#1472FF"/>
<stop offset="0.271319" stop-color="#47A9FF"/>
<stop offset="0.533651" stop-color="#ADC3FF"/>
<stop offset="0.851447" stop-color="#FFADC9"/>
<stop offset="1" stop-color="#FF476B"/>
</linearGradient>
</defs>
</svg>
